<mxfile host="Electron" agent="Mozilla/5.0 (Windows NT 10.0; Win64; x64) AppleWebKit/537.36 (KHTML, like Gecko) draw.io/28.0.6 Chrome/138.0.7204.100 Electron/37.2.3 Safari/537.36" version="28.0.6" pages="4">
  <diagram name="overview" id="aE0DW7iNFTxmuB1C0EMy">
    <mxGraphModel dx="1426" dy="841" grid="1" gridSize="10" guides="1" tooltips="1" connect="1" arrows="1" fold="1" page="1" pageScale="1" pageWidth="827" pageHeight="1169" math="0" shadow="0">
      <root>
        <mxCell id="lB__2Sk0XwVK0TaealUC-0" />
        <mxCell id="lB__2Sk0XwVK0TaealUC-1" parent="lB__2Sk0XwVK0TaealUC-0" />
        <mxCell id="mGlCrqEmlR-2vInZvUBy-24" value="" style="rounded=1;whiteSpace=wrap;html=1;fillColor=#f5f5f5;fontColor=#333333;strokeColor=#666666;" vertex="1" parent="lB__2Sk0XwVK0TaealUC-1">
          <mxGeometry x="240" y="120" width="120" height="400" as="geometry" />
        </mxCell>
        <mxCell id="lB__2Sk0XwVK0TaealUC-10" value="Client" style="verticalLabelPosition=bottom;html=1;verticalAlign=top;align=center;strokeColor=none;fillColor=#00BEF2;shape=mxgraph.azure.user;fontStyle=0;labelBackgroundColor=default;" vertex="1" parent="lB__2Sk0XwVK0TaealUC-1">
          <mxGeometry x="60" y="270" width="47.5" height="50" as="geometry" />
        </mxCell>
        <mxCell id="lB__2Sk0XwVK0TaealUC-14" value="Unprotected API" style="shape=image;verticalLabelPosition=bottom;labelBackgroundColor=none;verticalAlign=top;aspect=fixed;imageAspect=0;image=data:image/svg+xml,PHN2ZyB4bWxucz0iaHR0cDovL3d3dy53My5vcmcvMjAwMC9zdmciIHZpZXdCb3g9IjAgMCA1MCA1MCI+JiN4YTsgICAgPHBhdGggZmlsbD0iIzU3YTMwMCIgZD0iTTAgMjAuODRoMTkuNTV2OC4zMkgweiIvPiYjeGE7ICAgIDxwYXRoIGZpbGw9IiM1OWI0ZDkiIGQ9Ik00MS42OCAyMC44NGgxMC4yNnY4LjMySDQxLjY4eiIvPiYjeGE7ICAgIDxjaXJjbGUgZmlsbD0iIzU3YTMwMCIgcj0iOS40NiIgY3k9IjI1IiBjeD0iMjAuMTIiLz4mI3hhOyAgICA8cGF0aCBmaWxsPSIjNTliNGQ5IiBkPSJNMjAuMTIuNDh2MTAuOTZhMSAxIDAgMCAxIDAgMjcuMTR2MTAuOTZhMSAxIDAgMCAwIDAtNDkuMDVaIi8+JiN4YTs8L3N2Zz4=;imageBackground=none;fontStyle=1" vertex="1" parent="lB__2Sk0XwVK0TaealUC-1">
          <mxGeometry x="275" y="140" width="50" height="50" as="geometry" />
        </mxCell>
        <mxCell id="mGlCrqEmlR-2vInZvUBy-0" value="" style="rounded=1;whiteSpace=wrap;html=1;dashed=1;" vertex="1" parent="lB__2Sk0XwVK0TaealUC-1">
          <mxGeometry x="440" y="360" width="200" height="260" as="geometry" />
        </mxCell>
        <mxCell id="mGlCrqEmlR-2vInZvUBy-1" value="Microsoft Entra ID" style="image;aspect=fixed;html=1;points=[];align=center;fontSize=12;image=img/lib/azure2/other/Entra_Identity.svg;" vertex="1" parent="lB__2Sk0XwVK0TaealUC-1">
          <mxGeometry x="506" y="320" width="68" height="60.440000000000005" as="geometry" />
        </mxCell>
        <mxCell id="mGlCrqEmlR-2vInZvUBy-2" value="&lt;div&gt;&lt;span style=&quot;background-color: transparent; color: light-dark(rgb(0, 0, 0), rgb(255, 255, 255));&quot;&gt;&amp;nbsp; &amp;nbsp; &amp;nbsp; &amp;nbsp;App roles:&lt;/span&gt;&lt;/div&gt;&lt;div&gt;&lt;ul&gt;&lt;li&gt;Sample.Read&lt;/li&gt;&lt;li&gt;Sample.Write&lt;/li&gt;&lt;li&gt;Sample.Delete&lt;/li&gt;&lt;/ul&gt;&lt;/div&gt;" style="rounded=1;whiteSpace=wrap;html=1;fillColor=#dae8fc;strokeColor=#6c8ebf;align=left;verticalAlign=bottom;" vertex="1" parent="lB__2Sk0XwVK0TaealUC-1">
          <mxGeometry x="460" y="440" width="160" height="160" as="geometry" />
        </mxCell>
        <mxCell id="mGlCrqEmlR-2vInZvUBy-3" value="API Management&lt;div&gt;&lt;span style=&quot;font-weight: normal;&quot;&gt;(app registration)&lt;/span&gt;&lt;/div&gt;" style="image;sketch=0;aspect=fixed;html=1;points=[];align=center;fontSize=12;image=img/lib/mscae/App_Registrations.svg;fontStyle=1;labelBackgroundColor=none;" vertex="1" parent="lB__2Sk0XwVK0TaealUC-1">
          <mxGeometry x="515" y="415" width="50" height="50" as="geometry" />
        </mxCell>
        <mxCell id="mGlCrqEmlR-2vInZvUBy-9" value="" style="shape=curlyBracket;whiteSpace=wrap;html=1;rounded=1;labelPosition=left;verticalLabelPosition=middle;align=right;verticalAlign=middle;" vertex="1" parent="lB__2Sk0XwVK0TaealUC-1">
          <mxGeometry x="470" y="545" width="14.5" height="25" as="geometry" />
        </mxCell>
        <mxCell id="mGlCrqEmlR-2vInZvUBy-11" value="" style="shape=curlyBracket;whiteSpace=wrap;html=1;rounded=1;flipH=1;labelPosition=right;verticalLabelPosition=middle;align=left;verticalAlign=middle;" vertex="1" parent="lB__2Sk0XwVK0TaealUC-1">
          <mxGeometry x="580" y="542" width="15.5" height="44" as="geometry" />
        </mxCell>
        <mxCell id="mGlCrqEmlR-2vInZvUBy-14" value="requires" style="edgeStyle=orthogonalEdgeStyle;rounded=0;orthogonalLoop=1;jettySize=auto;html=1;entryX=0.1;entryY=0.5;entryDx=0;entryDy=0;entryPerimeter=0;dashed=1;" edge="1" parent="lB__2Sk0XwVK0TaealUC-1" source="lB__2Sk0XwVK0TaealUC-6" target="mGlCrqEmlR-2vInZvUBy-11">
          <mxGeometry x="-0.7168" y="15" relative="1" as="geometry">
            <Array as="points">
              <mxPoint x="660" y="165" />
              <mxPoint x="660" y="564" />
            </Array>
            <mxPoint as="offset" />
          </mxGeometry>
        </mxCell>
        <mxCell id="mGlCrqEmlR-2vInZvUBy-15" value="Azure Function" style="image;aspect=fixed;html=1;points=[];align=center;fontSize=12;image=img/lib/azure2/compute/Function_Apps.svg;fontStyle=1;labelBackgroundColor=none;" vertex="1" parent="lB__2Sk0XwVK0TaealUC-1">
          <mxGeometry x="266" y="270" width="68" height="60" as="geometry" />
        </mxCell>
        <mxCell id="mGlCrqEmlR-2vInZvUBy-16" value="Logic App&lt;div&gt;Workflow&lt;/div&gt;" style="image;aspect=fixed;html=1;points=[];align=center;fontSize=12;image=img/lib/azure2/internet_of_things/Logic_Apps.svg;fontStyle=1;labelBackgroundColor=none;" vertex="1" parent="lB__2Sk0XwVK0TaealUC-1">
          <mxGeometry x="270" y="400" width="60" height="60" as="geometry" />
        </mxCell>
        <mxCell id="mGlCrqEmlR-2vInZvUBy-18" value="&lt;div&gt;assigned roles&lt;/div&gt;&lt;div&gt;through the&lt;/div&gt;&lt;div&gt;managed identity&lt;/div&gt;" style="rounded=0;orthogonalLoop=1;jettySize=auto;html=1;dashed=1;labelBackgroundColor=default;entryX=0.1;entryY=0.5;entryDx=0;entryDy=0;entryPerimeter=0;exitX=0.5;exitY=1;exitDx=0;exitDy=0;edgeStyle=orthogonalEdgeStyle;" edge="1" parent="lB__2Sk0XwVK0TaealUC-1" source="mGlCrqEmlR-2vInZvUBy-24" target="mGlCrqEmlR-2vInZvUBy-9">
          <mxGeometry x="-0.4102" relative="1" as="geometry">
            <mxPoint as="offset" />
            <mxPoint x="320" y="710" as="sourcePoint" />
            <mxPoint x="521" y="689" as="targetPoint" />
            <Array as="points">
              <mxPoint x="300" y="558" />
              <mxPoint x="410" y="558" />
            </Array>
          </mxGeometry>
        </mxCell>
        <mxCell id="mGlCrqEmlR-2vInZvUBy-22" value="1. calls resource&lt;div&gt;without authentication&lt;/div&gt;" style="edgeStyle=orthogonalEdgeStyle;rounded=0;orthogonalLoop=1;jettySize=auto;html=1;" edge="1" parent="lB__2Sk0XwVK0TaealUC-1" source="lB__2Sk0XwVK0TaealUC-10" target="mGlCrqEmlR-2vInZvUBy-24">
          <mxGeometry x="-0.0566" y="20" relative="1" as="geometry">
            <mxPoint as="offset" />
            <mxPoint x="120" y="160" as="sourcePoint" />
            <mxPoint x="290" y="175" as="targetPoint" />
            <Array as="points">
              <mxPoint x="130" y="300" />
              <mxPoint x="130" y="300" />
            </Array>
          </mxGeometry>
        </mxCell>
        <mxCell id="lB__2Sk0XwVK0TaealUC-4" value="" style="rounded=1;whiteSpace=wrap;html=1;dashed=1;fillColor=none;" vertex="1" parent="lB__2Sk0XwVK0TaealUC-1">
          <mxGeometry x="230" y="60" width="330" height="190" as="geometry" />
        </mxCell>
        <mxCell id="lB__2Sk0XwVK0TaealUC-6" value="Protected API" style="shape=image;verticalLabelPosition=bottom;labelBackgroundColor=default;verticalAlign=top;aspect=fixed;imageAspect=0;image=data:image/svg+xml,PHN2ZyB4bWxucz0iaHR0cDovL3d3dy53My5vcmcvMjAwMC9zdmciIHZpZXdCb3g9IjAgMCA1MCA1MCI+JiN4YTsgICAgPHBhdGggZmlsbD0iIzU3YTMwMCIgZD0iTTAgMjAuODRoMTkuNTV2OC4zMkgweiIvPiYjeGE7ICAgIDxwYXRoIGZpbGw9IiM1OWI0ZDkiIGQ9Ik00MS42OCAyMC44NGgxMC4yNnY4LjMySDQxLjY4eiIvPiYjeGE7ICAgIDxjaXJjbGUgZmlsbD0iIzU3YTMwMCIgcj0iOS40NiIgY3k9IjI1IiBjeD0iMjAuMTIiLz4mI3hhOyAgICA8cGF0aCBmaWxsPSIjNTliNGQ5IiBkPSJNMjAuMTIuNDh2MTAuOTZhMSAxIDAgMCAxIDAgMjcuMTR2MTAuOTZhMSAxIDAgMCAwIDAtNDkuMDVaIi8+JiN4YTs8L3N2Zz4=;imageBackground=none;fontStyle=1" vertex="1" parent="lB__2Sk0XwVK0TaealUC-1">
          <mxGeometry x="460" y="140" width="50" height="50" as="geometry" />
        </mxCell>
        <mxCell id="mGlCrqEmlR-2vInZvUBy-25" value="3. calls API&lt;div&gt;with Bearer token&lt;/div&gt;" style="rounded=0;orthogonalLoop=1;jettySize=auto;html=1;" edge="1" parent="lB__2Sk0XwVK0TaealUC-1" source="mGlCrqEmlR-2vInZvUBy-24" target="lB__2Sk0XwVK0TaealUC-6">
          <mxGeometry x="-0.0213" y="-2" relative="1" as="geometry">
            <mxPoint x="510" y="290" as="targetPoint" />
            <mxPoint as="offset" />
          </mxGeometry>
        </mxCell>
        <mxCell id="lB__2Sk0XwVK0TaealUC-7" value="2. retrieves&amp;nbsp;&lt;div&gt;token using&lt;/div&gt;&lt;div&gt;managed&amp;nbsp;&lt;/div&gt;&lt;div&gt;identity for&lt;/div&gt;" style="rounded=0;orthogonalLoop=1;jettySize=auto;html=1;exitX=1;exitY=1;exitDx=0;exitDy=0;" edge="1" parent="lB__2Sk0XwVK0TaealUC-1" target="mGlCrqEmlR-2vInZvUBy-2">
          <mxGeometry x="-0.3002" y="3" relative="1" as="geometry">
            <mxPoint x="360" y="320" as="sourcePoint" />
            <mxPoint as="offset" />
            <mxPoint x="500.37735849056594" y="560" as="targetPoint" />
          </mxGeometry>
        </mxCell>
        <mxCell id="lB__2Sk0XwVK0TaealUC-5" value="API Management" style="image;aspect=fixed;html=1;points=[];align=center;fontSize=12;image=img/lib/azure2/app_services/API_Management_Services.svg;imageBackground=default;" vertex="1" parent="lB__2Sk0XwVK0TaealUC-1">
          <mxGeometry x="362.5" y="20" width="65" height="60" as="geometry" />
        </mxCell>
      </root>
    </mxGraphModel>
  </diagram>
  <diagram name="apim-to-apim" id="T999v1JWD-zuzra6A1x7">
    <mxGraphModel dx="983" dy="580" grid="1" gridSize="10" guides="1" tooltips="1" connect="1" arrows="1" fold="1" page="1" pageScale="1" pageWidth="827" pageHeight="1169" math="0" shadow="0">
      <root>
        <mxCell id="MTBBnn2Q58c1l2iHvtrN-0" />
        <mxCell id="MTBBnn2Q58c1l2iHvtrN-1" parent="MTBBnn2Q58c1l2iHvtrN-0" />
        <mxCell id="MTBBnn2Q58c1l2iHvtrN-2" value="" style="shape=umlLifeline;perimeter=lifelinePerimeter;whiteSpace=wrap;html=1;container=1;dropTarget=0;collapsible=0;recursiveResize=0;outlineConnect=0;portConstraint=eastwest;newEdgeStyle={&quot;curved&quot;:0,&quot;rounded&quot;:0};participant=umlActor;" parent="MTBBnn2Q58c1l2iHvtrN-1" vertex="1">
          <mxGeometry x="100" y="80" width="20" height="340" as="geometry" />
        </mxCell>
        <mxCell id="MTBBnn2Q58c1l2iHvtrN-3" value="Protected API&lt;div&gt;&lt;i&gt;(API Management)&lt;/i&gt;&lt;/div&gt;" style="shape=umlLifeline;perimeter=lifelinePerimeter;whiteSpace=wrap;html=1;container=1;dropTarget=0;collapsible=0;recursiveResize=0;outlineConnect=0;portConstraint=eastwest;newEdgeStyle={&quot;curved&quot;:0,&quot;rounded&quot;:0};" parent="MTBBnn2Q58c1l2iHvtrN-1" vertex="1">
          <mxGeometry x="287.5" y="80" width="110" height="340" as="geometry" />
        </mxCell>
        <mxCell id="0RmOqdITF_pL-Moo39bk-4" value="" style="html=1;points=[[0,0,0,0,5],[0,1,0,0,-5],[1,0,0,0,5],[1,1,0,0,-5]];perimeter=orthogonalPerimeter;outlineConnect=0;targetShapes=umlLifeline;portConstraint=eastwest;newEdgeStyle={&quot;curved&quot;:0,&quot;rounded&quot;:0};" parent="MTBBnn2Q58c1l2iHvtrN-3" vertex="1">
          <mxGeometry x="50" y="270" width="10" height="40" as="geometry" />
        </mxCell>
        <mxCell id="MTBBnn2Q58c1l2iHvtrN-7" value="APIM app registration&lt;div&gt;&lt;i&gt;(Entra ID)&lt;/i&gt;&lt;/div&gt;" style="shape=umlLifeline;perimeter=lifelinePerimeter;whiteSpace=wrap;html=1;container=1;dropTarget=0;collapsible=0;recursiveResize=0;outlineConnect=0;portConstraint=eastwest;newEdgeStyle={&quot;curved&quot;:0,&quot;rounded&quot;:0};" parent="MTBBnn2Q58c1l2iHvtrN-1" vertex="1">
          <mxGeometry x="413" y="80" width="127" height="340" as="geometry" />
        </mxCell>
        <mxCell id="0RmOqdITF_pL-Moo39bk-8" value="" style="html=1;points=[[0,0,0,0,5],[0,1,0,0,-5],[1,0,0,0,5],[1,1,0,0,-5]];perimeter=orthogonalPerimeter;outlineConnect=0;targetShapes=umlLifeline;portConstraint=eastwest;newEdgeStyle={&quot;curved&quot;:0,&quot;rounded&quot;:0};" parent="MTBBnn2Q58c1l2iHvtrN-7" vertex="1">
          <mxGeometry x="58.5" y="140" width="10" height="40" as="geometry" />
        </mxCell>
        <mxCell id="0RmOqdITF_pL-Moo39bk-0" value="Unrotected API&lt;div&gt;&lt;i&gt;(API Management)&lt;/i&gt;&lt;/div&gt;" style="shape=umlLifeline;perimeter=lifelinePerimeter;whiteSpace=wrap;html=1;container=1;dropTarget=0;collapsible=0;recursiveResize=0;outlineConnect=0;portConstraint=eastwest;newEdgeStyle={&quot;curved&quot;:0,&quot;rounded&quot;:0};" parent="MTBBnn2Q58c1l2iHvtrN-1" vertex="1">
          <mxGeometry x="160" y="80" width="110" height="340" as="geometry" />
        </mxCell>
        <mxCell id="0RmOqdITF_pL-Moo39bk-1" value="" style="html=1;points=[[0,0,0,0,5],[0,1,0,0,-5],[1,0,0,0,5],[1,1,0,0,-5]];perimeter=orthogonalPerimeter;outlineConnect=0;targetShapes=umlLifeline;portConstraint=eastwest;newEdgeStyle={&quot;curved&quot;:0,&quot;rounded&quot;:0};" parent="0RmOqdITF_pL-Moo39bk-0" vertex="1">
          <mxGeometry x="50" y="80" width="10" height="240" as="geometry" />
        </mxCell>
        <mxCell id="0RmOqdITF_pL-Moo39bk-2" value="GET" style="html=1;verticalAlign=bottom;endArrow=block;curved=0;rounded=0;entryX=0;entryY=0;entryDx=0;entryDy=5;" parent="MTBBnn2Q58c1l2iHvtrN-1" source="MTBBnn2Q58c1l2iHvtrN-2" target="0RmOqdITF_pL-Moo39bk-1" edge="1">
          <mxGeometry x="-0.0041" relative="1" as="geometry">
            <mxPoint x="140" y="165" as="sourcePoint" />
            <mxPoint as="offset" />
          </mxGeometry>
        </mxCell>
        <mxCell id="0RmOqdITF_pL-Moo39bk-3" value="200 OK" style="html=1;verticalAlign=bottom;endArrow=open;dashed=1;endSize=8;curved=0;rounded=0;exitX=0;exitY=1;exitDx=0;exitDy=-5;" parent="MTBBnn2Q58c1l2iHvtrN-1" source="0RmOqdITF_pL-Moo39bk-1" target="MTBBnn2Q58c1l2iHvtrN-2" edge="1">
          <mxGeometry relative="1" as="geometry">
            <mxPoint x="140" y="235" as="targetPoint" />
          </mxGeometry>
        </mxCell>
        <mxCell id="0RmOqdITF_pL-Moo39bk-6" value="200 OK" style="html=1;verticalAlign=bottom;endArrow=open;dashed=1;endSize=8;curved=0;rounded=0;exitX=0;exitY=1;exitDx=0;exitDy=-5;" parent="MTBBnn2Q58c1l2iHvtrN-1" source="0RmOqdITF_pL-Moo39bk-4" target="0RmOqdITF_pL-Moo39bk-1" edge="1">
          <mxGeometry relative="1" as="geometry">
            <mxPoint x="260" y="345" as="targetPoint" />
          </mxGeometry>
        </mxCell>
        <mxCell id="0RmOqdITF_pL-Moo39bk-5" value="GET (access token)" style="html=1;verticalAlign=bottom;endArrow=block;curved=0;rounded=0;entryX=0;entryY=0;entryDx=0;entryDy=5;" parent="MTBBnn2Q58c1l2iHvtrN-1" source="0RmOqdITF_pL-Moo39bk-1" target="0RmOqdITF_pL-Moo39bk-4" edge="1">
          <mxGeometry relative="1" as="geometry">
            <mxPoint x="260" y="275" as="sourcePoint" />
          </mxGeometry>
        </mxCell>
        <mxCell id="0RmOqdITF_pL-Moo39bk-7" value="if token not cached" style="shape=umlFrame;whiteSpace=wrap;html=1;pointerEvents=0;width=125;height=20;" parent="MTBBnn2Q58c1l2iHvtrN-1" vertex="1">
          <mxGeometry x="185" y="180" width="335" height="140" as="geometry" />
        </mxCell>
        <mxCell id="0RmOqdITF_pL-Moo39bk-9" value="Get token for managed identity" style="html=1;verticalAlign=bottom;endArrow=block;curved=0;rounded=0;entryX=0;entryY=0;entryDx=0;entryDy=5;" parent="MTBBnn2Q58c1l2iHvtrN-1" source="0RmOqdITF_pL-Moo39bk-1" target="0RmOqdITF_pL-Moo39bk-8" edge="1">
          <mxGeometry relative="1" as="geometry">
            <mxPoint x="390" y="205" as="sourcePoint" />
          </mxGeometry>
        </mxCell>
        <mxCell id="0RmOqdITF_pL-Moo39bk-10" value="access token" style="html=1;verticalAlign=bottom;endArrow=open;dashed=1;endSize=8;curved=0;rounded=0;exitX=0;exitY=1;exitDx=0;exitDy=-5;" parent="MTBBnn2Q58c1l2iHvtrN-1" source="0RmOqdITF_pL-Moo39bk-8" target="0RmOqdITF_pL-Moo39bk-1" edge="1">
          <mxGeometry relative="1" as="geometry">
            <mxPoint x="390" y="275" as="targetPoint" />
          </mxGeometry>
        </mxCell>
        <mxCell id="DG36szIiAkqgeyOre-zb-0" value="" style="html=1;points=[[0,0,0,0,5],[0,1,0,0,-5],[1,0,0,0,5],[1,1,0,0,-5]];perimeter=orthogonalPerimeter;outlineConnect=0;targetShapes=umlLifeline;portConstraint=eastwest;newEdgeStyle={&quot;curved&quot;:0,&quot;rounded&quot;:0};" parent="MTBBnn2Q58c1l2iHvtrN-1" vertex="1">
          <mxGeometry x="215" y="280" width="10" height="30" as="geometry" />
        </mxCell>
        <mxCell id="DG36szIiAkqgeyOre-zb-1" value="cache token" style="html=1;align=left;spacingLeft=2;endArrow=block;rounded=0;edgeStyle=orthogonalEdgeStyle;curved=0;rounded=0;" parent="MTBBnn2Q58c1l2iHvtrN-1" target="DG36szIiAkqgeyOre-zb-0" edge="1">
          <mxGeometry relative="1" as="geometry">
            <mxPoint x="220" y="270" as="sourcePoint" />
            <Array as="points">
              <mxPoint x="220" y="270" />
              <mxPoint x="250" y="270" />
              <mxPoint x="250" y="290" />
            </Array>
          </mxGeometry>
        </mxCell>
      </root>
    </mxGraphModel>
  </diagram>
  <diagram name="function-to-apim" id="Trxo3QUIpetPU39CO75U">
    <mxGraphModel dx="983" dy="580" grid="1" gridSize="10" guides="1" tooltips="1" connect="1" arrows="1" fold="1" page="1" pageScale="1" pageWidth="827" pageHeight="1169" math="0" shadow="0">
      <root>
        <mxCell id="buFjDPZJErhOcy-LyFWh-0" />
        <mxCell id="buFjDPZJErhOcy-LyFWh-1" parent="buFjDPZJErhOcy-LyFWh-0" />
        <mxCell id="buFjDPZJErhOcy-LyFWh-2" value="" style="shape=umlLifeline;perimeter=lifelinePerimeter;whiteSpace=wrap;html=1;container=1;dropTarget=0;collapsible=0;recursiveResize=0;outlineConnect=0;portConstraint=eastwest;newEdgeStyle={&quot;curved&quot;:0,&quot;rounded&quot;:0};participant=umlActor;" vertex="1" parent="buFjDPZJErhOcy-LyFWh-1">
          <mxGeometry x="100" y="80" width="20" height="340" as="geometry" />
        </mxCell>
        <mxCell id="buFjDPZJErhOcy-LyFWh-3" value="Protected API&lt;div&gt;&lt;i&gt;(API Management)&lt;/i&gt;&lt;/div&gt;" style="shape=umlLifeline;perimeter=lifelinePerimeter;whiteSpace=wrap;html=1;container=1;dropTarget=0;collapsible=0;recursiveResize=0;outlineConnect=0;portConstraint=eastwest;newEdgeStyle={&quot;curved&quot;:0,&quot;rounded&quot;:0};" vertex="1" parent="buFjDPZJErhOcy-LyFWh-1">
          <mxGeometry x="287.5" y="80" width="110" height="340" as="geometry" />
        </mxCell>
        <mxCell id="buFjDPZJErhOcy-LyFWh-4" value="" style="html=1;points=[[0,0,0,0,5],[0,1,0,0,-5],[1,0,0,0,5],[1,1,0,0,-5]];perimeter=orthogonalPerimeter;outlineConnect=0;targetShapes=umlLifeline;portConstraint=eastwest;newEdgeStyle={&quot;curved&quot;:0,&quot;rounded&quot;:0};" vertex="1" parent="buFjDPZJErhOcy-LyFWh-3">
          <mxGeometry x="50" y="270" width="10" height="40" as="geometry" />
        </mxCell>
        <mxCell id="buFjDPZJErhOcy-LyFWh-5" value="APIM app registration&lt;div&gt;&lt;i&gt;(Entra ID)&lt;/i&gt;&lt;/div&gt;" style="shape=umlLifeline;perimeter=lifelinePerimeter;whiteSpace=wrap;html=1;container=1;dropTarget=0;collapsible=0;recursiveResize=0;outlineConnect=0;portConstraint=eastwest;newEdgeStyle={&quot;curved&quot;:0,&quot;rounded&quot;:0};" vertex="1" parent="buFjDPZJErhOcy-LyFWh-1">
          <mxGeometry x="413" y="80" width="127" height="340" as="geometry" />
        </mxCell>
        <mxCell id="buFjDPZJErhOcy-LyFWh-6" value="" style="html=1;points=[[0,0,0,0,5],[0,1,0,0,-5],[1,0,0,0,5],[1,1,0,0,-5]];perimeter=orthogonalPerimeter;outlineConnect=0;targetShapes=umlLifeline;portConstraint=eastwest;newEdgeStyle={&quot;curved&quot;:0,&quot;rounded&quot;:0};" vertex="1" parent="buFjDPZJErhOcy-LyFWh-5">
          <mxGeometry x="58.5" y="140" width="10" height="40" as="geometry" />
        </mxCell>
        <mxCell id="buFjDPZJErhOcy-LyFWh-7" value="Azure Function" style="shape=umlLifeline;perimeter=lifelinePerimeter;whiteSpace=wrap;html=1;container=1;dropTarget=0;collapsible=0;recursiveResize=0;outlineConnect=0;portConstraint=eastwest;newEdgeStyle={&quot;curved&quot;:0,&quot;rounded&quot;:0};" vertex="1" parent="buFjDPZJErhOcy-LyFWh-1">
          <mxGeometry x="160" y="80" width="110" height="340" as="geometry" />
        </mxCell>
        <mxCell id="buFjDPZJErhOcy-LyFWh-8" value="" style="html=1;points=[[0,0,0,0,5],[0,1,0,0,-5],[1,0,0,0,5],[1,1,0,0,-5]];perimeter=orthogonalPerimeter;outlineConnect=0;targetShapes=umlLifeline;portConstraint=eastwest;newEdgeStyle={&quot;curved&quot;:0,&quot;rounded&quot;:0};" vertex="1" parent="buFjDPZJErhOcy-LyFWh-7">
          <mxGeometry x="50" y="80" width="10" height="240" as="geometry" />
        </mxCell>
        <mxCell id="buFjDPZJErhOcy-LyFWh-9" value="GET" style="html=1;verticalAlign=bottom;endArrow=block;curved=0;rounded=0;entryX=0;entryY=0;entryDx=0;entryDy=5;" edge="1" parent="buFjDPZJErhOcy-LyFWh-1" source="buFjDPZJErhOcy-LyFWh-2" target="buFjDPZJErhOcy-LyFWh-8">
          <mxGeometry x="-0.0041" relative="1" as="geometry">
            <mxPoint x="140" y="165" as="sourcePoint" />
            <mxPoint as="offset" />
          </mxGeometry>
        </mxCell>
        <mxCell id="buFjDPZJErhOcy-LyFWh-10" value="200 OK" style="html=1;verticalAlign=bottom;endArrow=open;dashed=1;endSize=8;curved=0;rounded=0;exitX=0;exitY=1;exitDx=0;exitDy=-5;" edge="1" parent="buFjDPZJErhOcy-LyFWh-1" source="buFjDPZJErhOcy-LyFWh-8" target="buFjDPZJErhOcy-LyFWh-2">
          <mxGeometry relative="1" as="geometry">
            <mxPoint x="140" y="235" as="targetPoint" />
          </mxGeometry>
        </mxCell>
        <mxCell id="buFjDPZJErhOcy-LyFWh-11" value="200 OK" style="html=1;verticalAlign=bottom;endArrow=open;dashed=1;endSize=8;curved=0;rounded=0;exitX=0;exitY=1;exitDx=0;exitDy=-5;" edge="1" parent="buFjDPZJErhOcy-LyFWh-1" source="buFjDPZJErhOcy-LyFWh-4" target="buFjDPZJErhOcy-LyFWh-8">
          <mxGeometry relative="1" as="geometry">
            <mxPoint x="260" y="345" as="targetPoint" />
          </mxGeometry>
        </mxCell>
        <mxCell id="buFjDPZJErhOcy-LyFWh-12" value="GET (access token)" style="html=1;verticalAlign=bottom;endArrow=block;curved=0;rounded=0;entryX=0;entryY=0;entryDx=0;entryDy=5;" edge="1" parent="buFjDPZJErhOcy-LyFWh-1" source="buFjDPZJErhOcy-LyFWh-8" target="buFjDPZJErhOcy-LyFWh-4">
          <mxGeometry relative="1" as="geometry">
            <mxPoint x="260" y="275" as="sourcePoint" />
          </mxGeometry>
        </mxCell>
        <mxCell id="buFjDPZJErhOcy-LyFWh-13" value="if token not cached" style="shape=umlFrame;whiteSpace=wrap;html=1;pointerEvents=0;width=125;height=20;" vertex="1" parent="buFjDPZJErhOcy-LyFWh-1">
          <mxGeometry x="185" y="180" width="335" height="140" as="geometry" />
        </mxCell>
        <mxCell id="buFjDPZJErhOcy-LyFWh-14" value="Get token for managed identity" style="html=1;verticalAlign=bottom;endArrow=block;curved=0;rounded=0;entryX=0;entryY=0;entryDx=0;entryDy=5;" edge="1" parent="buFjDPZJErhOcy-LyFWh-1" source="buFjDPZJErhOcy-LyFWh-8" target="buFjDPZJErhOcy-LyFWh-6">
          <mxGeometry relative="1" as="geometry">
            <mxPoint x="390" y="205" as="sourcePoint" />
          </mxGeometry>
        </mxCell>
        <mxCell id="buFjDPZJErhOcy-LyFWh-15" value="access token" style="html=1;verticalAlign=bottom;endArrow=open;dashed=1;endSize=8;curved=0;rounded=0;exitX=0;exitY=1;exitDx=0;exitDy=-5;" edge="1" parent="buFjDPZJErhOcy-LyFWh-1" source="buFjDPZJErhOcy-LyFWh-6" target="buFjDPZJErhOcy-LyFWh-8">
          <mxGeometry relative="1" as="geometry">
            <mxPoint x="390" y="275" as="targetPoint" />
          </mxGeometry>
        </mxCell>
        <mxCell id="buFjDPZJErhOcy-LyFWh-16" value="" style="html=1;points=[[0,0,0,0,5],[0,1,0,0,-5],[1,0,0,0,5],[1,1,0,0,-5]];perimeter=orthogonalPerimeter;outlineConnect=0;targetShapes=umlLifeline;portConstraint=eastwest;newEdgeStyle={&quot;curved&quot;:0,&quot;rounded&quot;:0};" vertex="1" parent="buFjDPZJErhOcy-LyFWh-1">
          <mxGeometry x="215" y="280" width="10" height="30" as="geometry" />
        </mxCell>
        <mxCell id="buFjDPZJErhOcy-LyFWh-17" value="cache token" style="html=1;align=left;spacingLeft=2;endArrow=block;rounded=0;edgeStyle=orthogonalEdgeStyle;curved=0;rounded=0;" edge="1" parent="buFjDPZJErhOcy-LyFWh-1" target="buFjDPZJErhOcy-LyFWh-16">
          <mxGeometry relative="1" as="geometry">
            <mxPoint x="220" y="270" as="sourcePoint" />
            <Array as="points">
              <mxPoint x="220" y="270" />
              <mxPoint x="250" y="270" />
              <mxPoint x="250" y="290" />
            </Array>
          </mxGeometry>
        </mxCell>
      </root>
    </mxGraphModel>
  </diagram>
  <diagram name="workflow-to-apim" id="tXm9F4Ou7M_PSs9OdUkp">
    <mxGraphModel dx="1426" dy="841" grid="1" gridSize="10" guides="1" tooltips="1" connect="1" arrows="1" fold="1" page="1" pageScale="1" pageWidth="827" pageHeight="1169" math="0" shadow="0">
      <root>
        <mxCell id="eNEo7-VGMe1KQMRLa4Dd-0" />
        <mxCell id="eNEo7-VGMe1KQMRLa4Dd-1" parent="eNEo7-VGMe1KQMRLa4Dd-0" />
        <mxCell id="eNEo7-VGMe1KQMRLa4Dd-2" value="" style="shape=umlLifeline;perimeter=lifelinePerimeter;whiteSpace=wrap;html=1;container=1;dropTarget=0;collapsible=0;recursiveResize=0;outlineConnect=0;portConstraint=eastwest;newEdgeStyle={&quot;curved&quot;:0,&quot;rounded&quot;:0};participant=umlActor;" vertex="1" parent="eNEo7-VGMe1KQMRLa4Dd-1">
          <mxGeometry x="100" y="80" width="20" height="340" as="geometry" />
        </mxCell>
        <mxCell id="eNEo7-VGMe1KQMRLa4Dd-3" value="Protected API&lt;div&gt;&lt;i&gt;(API Management)&lt;/i&gt;&lt;/div&gt;" style="shape=umlLifeline;perimeter=lifelinePerimeter;whiteSpace=wrap;html=1;container=1;dropTarget=0;collapsible=0;recursiveResize=0;outlineConnect=0;portConstraint=eastwest;newEdgeStyle={&quot;curved&quot;:0,&quot;rounded&quot;:0};" vertex="1" parent="eNEo7-VGMe1KQMRLa4Dd-1">
          <mxGeometry x="287.5" y="80" width="110" height="340" as="geometry" />
        </mxCell>
        <mxCell id="eNEo7-VGMe1KQMRLa4Dd-4" value="" style="html=1;points=[[0,0,0,0,5],[0,1,0,0,-5],[1,0,0,0,5],[1,1,0,0,-5]];perimeter=orthogonalPerimeter;outlineConnect=0;targetShapes=umlLifeline;portConstraint=eastwest;newEdgeStyle={&quot;curved&quot;:0,&quot;rounded&quot;:0};" vertex="1" parent="eNEo7-VGMe1KQMRLa4Dd-3">
          <mxGeometry x="50" y="270" width="10" height="40" as="geometry" />
        </mxCell>
        <mxCell id="eNEo7-VGMe1KQMRLa4Dd-5" value="APIM app registration&lt;div&gt;&lt;i&gt;(Entra ID)&lt;/i&gt;&lt;/div&gt;" style="shape=umlLifeline;perimeter=lifelinePerimeter;whiteSpace=wrap;html=1;container=1;dropTarget=0;collapsible=0;recursiveResize=0;outlineConnect=0;portConstraint=eastwest;newEdgeStyle={&quot;curved&quot;:0,&quot;rounded&quot;:0};" vertex="1" parent="eNEo7-VGMe1KQMRLa4Dd-1">
          <mxGeometry x="413" y="80" width="127" height="340" as="geometry" />
        </mxCell>
        <mxCell id="eNEo7-VGMe1KQMRLa4Dd-6" value="" style="html=1;points=[[0,0,0,0,5],[0,1,0,0,-5],[1,0,0,0,5],[1,1,0,0,-5]];perimeter=orthogonalPerimeter;outlineConnect=0;targetShapes=umlLifeline;portConstraint=eastwest;newEdgeStyle={&quot;curved&quot;:0,&quot;rounded&quot;:0};" vertex="1" parent="eNEo7-VGMe1KQMRLa4Dd-5">
          <mxGeometry x="58.5" y="140" width="10" height="40" as="geometry" />
        </mxCell>
        <mxCell id="eNEo7-VGMe1KQMRLa4Dd-7" value="Logic App&lt;div&gt;Workflow&lt;/div&gt;" style="shape=umlLifeline;perimeter=lifelinePerimeter;whiteSpace=wrap;html=1;container=1;dropTarget=0;collapsible=0;recursiveResize=0;outlineConnect=0;portConstraint=eastwest;newEdgeStyle={&quot;curved&quot;:0,&quot;rounded&quot;:0};" vertex="1" parent="eNEo7-VGMe1KQMRLa4Dd-1">
          <mxGeometry x="160" y="80" width="110" height="340" as="geometry" />
        </mxCell>
        <mxCell id="eNEo7-VGMe1KQMRLa4Dd-8" value="" style="html=1;points=[[0,0,0,0,5],[0,1,0,0,-5],[1,0,0,0,5],[1,1,0,0,-5]];perimeter=orthogonalPerimeter;outlineConnect=0;targetShapes=umlLifeline;portConstraint=eastwest;newEdgeStyle={&quot;curved&quot;:0,&quot;rounded&quot;:0};" vertex="1" parent="eNEo7-VGMe1KQMRLa4Dd-7">
          <mxGeometry x="50" y="80" width="10" height="240" as="geometry" />
        </mxCell>
        <mxCell id="eNEo7-VGMe1KQMRLa4Dd-9" value="Trigger" style="html=1;verticalAlign=bottom;endArrow=block;curved=0;rounded=0;entryX=0;entryY=0;entryDx=0;entryDy=5;" edge="1" parent="eNEo7-VGMe1KQMRLa4Dd-1" source="eNEo7-VGMe1KQMRLa4Dd-2" target="eNEo7-VGMe1KQMRLa4Dd-8">
          <mxGeometry x="-0.0041" relative="1" as="geometry">
            <mxPoint x="140" y="165" as="sourcePoint" />
            <mxPoint as="offset" />
          </mxGeometry>
        </mxCell>
        <mxCell id="eNEo7-VGMe1KQMRLa4Dd-10" value="200 OK" style="html=1;verticalAlign=bottom;endArrow=open;dashed=1;endSize=8;curved=0;rounded=0;exitX=0;exitY=1;exitDx=0;exitDy=-5;" edge="1" parent="eNEo7-VGMe1KQMRLa4Dd-1" source="eNEo7-VGMe1KQMRLa4Dd-8" target="eNEo7-VGMe1KQMRLa4Dd-2">
          <mxGeometry relative="1" as="geometry">
            <mxPoint x="140" y="235" as="targetPoint" />
          </mxGeometry>
        </mxCell>
        <mxCell id="eNEo7-VGMe1KQMRLa4Dd-11" value="200 OK" style="html=1;verticalAlign=bottom;endArrow=open;dashed=1;endSize=8;curved=0;rounded=0;exitX=0;exitY=1;exitDx=0;exitDy=-5;" edge="1" parent="eNEo7-VGMe1KQMRLa4Dd-1" source="eNEo7-VGMe1KQMRLa4Dd-4" target="eNEo7-VGMe1KQMRLa4Dd-8">
          <mxGeometry relative="1" as="geometry">
            <mxPoint x="260" y="345" as="targetPoint" />
          </mxGeometry>
        </mxCell>
        <mxCell id="eNEo7-VGMe1KQMRLa4Dd-12" value="GET (access token)" style="html=1;verticalAlign=bottom;endArrow=block;curved=0;rounded=0;entryX=0;entryY=0;entryDx=0;entryDy=5;" edge="1" parent="eNEo7-VGMe1KQMRLa4Dd-1" source="eNEo7-VGMe1KQMRLa4Dd-8" target="eNEo7-VGMe1KQMRLa4Dd-4">
          <mxGeometry relative="1" as="geometry">
            <mxPoint x="260" y="275" as="sourcePoint" />
          </mxGeometry>
        </mxCell>
        <mxCell id="eNEo7-VGMe1KQMRLa4Dd-13" value="if token not cached" style="shape=umlFrame;whiteSpace=wrap;html=1;pointerEvents=0;width=125;height=20;" vertex="1" parent="eNEo7-VGMe1KQMRLa4Dd-1">
          <mxGeometry x="185" y="180" width="335" height="140" as="geometry" />
        </mxCell>
        <mxCell id="eNEo7-VGMe1KQMRLa4Dd-14" value="Get token for managed identity" style="html=1;verticalAlign=bottom;endArrow=block;curved=0;rounded=0;entryX=0;entryY=0;entryDx=0;entryDy=5;" edge="1" parent="eNEo7-VGMe1KQMRLa4Dd-1" source="eNEo7-VGMe1KQMRLa4Dd-8" target="eNEo7-VGMe1KQMRLa4Dd-6">
          <mxGeometry relative="1" as="geometry">
            <mxPoint x="390" y="205" as="sourcePoint" />
          </mxGeometry>
        </mxCell>
        <mxCell id="eNEo7-VGMe1KQMRLa4Dd-15" value="access token" style="html=1;verticalAlign=bottom;endArrow=open;dashed=1;endSize=8;curved=0;rounded=0;exitX=0;exitY=1;exitDx=0;exitDy=-5;" edge="1" parent="eNEo7-VGMe1KQMRLa4Dd-1" source="eNEo7-VGMe1KQMRLa4Dd-6" target="eNEo7-VGMe1KQMRLa4Dd-8">
          <mxGeometry relative="1" as="geometry">
            <mxPoint x="390" y="275" as="targetPoint" />
          </mxGeometry>
        </mxCell>
        <mxCell id="eNEo7-VGMe1KQMRLa4Dd-16" value="" style="html=1;points=[[0,0,0,0,5],[0,1,0,0,-5],[1,0,0,0,5],[1,1,0,0,-5]];perimeter=orthogonalPerimeter;outlineConnect=0;targetShapes=umlLifeline;portConstraint=eastwest;newEdgeStyle={&quot;curved&quot;:0,&quot;rounded&quot;:0};" vertex="1" parent="eNEo7-VGMe1KQMRLa4Dd-1">
          <mxGeometry x="215" y="280" width="10" height="30" as="geometry" />
        </mxCell>
        <mxCell id="eNEo7-VGMe1KQMRLa4Dd-17" value="cache token" style="html=1;align=left;spacingLeft=2;endArrow=block;rounded=0;edgeStyle=orthogonalEdgeStyle;curved=0;rounded=0;" edge="1" parent="eNEo7-VGMe1KQMRLa4Dd-1" target="eNEo7-VGMe1KQMRLa4Dd-16">
          <mxGeometry relative="1" as="geometry">
            <mxPoint x="220" y="270" as="sourcePoint" />
            <Array as="points">
              <mxPoint x="220" y="270" />
              <mxPoint x="250" y="270" />
              <mxPoint x="250" y="290" />
            </Array>
          </mxGeometry>
        </mxCell>
      </root>
    </mxGraphModel>
  </diagram>
</mxfile>
